<svg width="74" height="74" viewBox="0 0 74 74" fill="none" xmlns="http://www.w3.org/2000/svg">
<g clip-path="url(#clip0_840_7202)">
<path d="M0 37C0 30.2906 1.65272 24.0994 4.958 18.426C8.26336 12.7526 12.7527 8.26336 18.426 4.958C24.0994 1.65264 30.2907 0 37 0C43.7094 0 49.9007 1.65264 55.574 4.958C61.2474 8.26336 65.7367 12.7526 69.042 18.426C72.3474 24.0994 74 30.2906 74 37C74 43.7094 72.3474 49.9006 69.042 55.574C65.7367 61.2474 61.2474 65.7366 55.574 69.042C49.9007 72.3474 43.7094 74 37 74C30.2907 74 24.0994 72.3474 18.426 69.042C12.7527 65.7366 8.26336 61.2474 4.958 55.574C1.65272 49.9006 0 43.7094 0 37ZM6.142 37C6.142 44.696 8.732 51.4794 13.912 57.35C16.28 52.7126 20.0294 48.2974 25.16 44.104C30.2907 39.9106 35.298 37.2714 40.182 36.186C39.442 34.4594 38.7267 32.9054 38.036 31.524C29.5507 34.2374 20.3747 35.594 10.508 35.594C8.584 35.594 7.15336 35.5694 6.216 35.52C6.216 35.7174 6.20372 35.964 6.179 36.26C6.15436 36.556 6.142 36.8026 6.142 37ZM7.104 29.378C8.18936 29.4766 9.79272 29.526 11.914 29.526C20.1527 29.526 27.972 28.416 35.372 26.196C31.6227 19.536 27.5034 13.986 23.014 9.546C19.1167 11.5194 15.7744 14.2574 12.987 17.76C10.1997 21.2626 8.23872 25.1354 7.104 29.378ZM18.13 61.346C23.7047 65.6874 29.9947 67.858 37 67.858C40.6507 67.858 44.2767 67.1674 47.878 65.786C46.8914 57.35 44.9674 49.1854 42.106 41.292C37.5674 42.2786 32.9917 44.77 28.379 48.766C23.7664 52.762 20.35 56.9554 18.13 61.346ZM29.452 7.178C33.7934 11.6674 37.814 17.2666 41.514 23.976C48.2234 21.164 53.28 17.5874 56.684 13.246C50.9614 8.51 44.4 6.142 37 6.142C34.484 6.142 31.968 6.48736 29.452 7.178ZM44.178 29.23C44.918 30.8086 45.7567 32.8066 46.694 35.224C50.3447 34.8786 54.316 34.706 58.608 34.706C61.6667 34.706 64.7007 34.78 67.71 34.928C67.3154 28.2186 64.898 22.2494 60.458 17.02C57.2514 21.8054 51.8247 25.8754 44.178 29.23ZM48.544 40.404C51.06 47.7054 52.762 55.204 53.65 62.9C57.5474 60.384 60.7294 57.1526 63.196 53.206C65.6627 49.2594 67.1427 44.992 67.636 40.404C64.0347 40.1574 60.754 40.034 57.794 40.034C55.0807 40.034 51.9974 40.1574 48.544 40.404Z" fill="white" fill-opacity="0.7"/>
</g>
<defs>
<clipPath id="clip0_840_7202">
<rect width="74" height="74" fill="white"/>
</clipPath>
</defs>
</svg>
